<svg height="600" width="1000" xmlns="http://www.w3.org/2000/svg">
<title>Your Diagram Title</title>
<!-- Generated with SankeyMATIC: 2/16/2024, 11:35:41 AM -->
<rect height="600" width="1000" fill="#ffffff"></rect>
<g transform="translate(12,18)">
<g id="sankey_flows">
<path id="flow7" d="M12 403.9977C221.53863 403.9977 221.53863 461.15828 431.07726 461.15828" fill="none" stroke-width="201.68344" stroke="#96c9fd" opacity="0.5"><title>Other → n: 72</title></path>
<path id="flow0" d="M12 223.32295C221.53863 223.32295 221.53863 75.20165 431.07726 75.20165" fill="none" stroke-width="36.41507" stroke="#96c9fd" opacity="0.5"><title>Other → Data only: 13</title></path>
<path id="flow1" d="M12 254.1357C221.53863 254.1357 221.53863 127.1154 431.07726 127.1154" fill="none" stroke-width="25.21043" stroke="#96c9fd" opacity="0.5"><title>Other → Code only: 9</title></path>
<path id="flow8" d="M443.07726 56.99412v19.60811L862.15453 76.18299v-19.60811z" fill="#2BA02B" stroke-width="0.5" stroke="#2BA02B" opacity="0.5"><title>Data only → dr: 7</title></path>
<path id="flow10" d="M443.07726 124.31424C652.6159 124.31424 652.6159 156.99599 862.15453 156.99599" fill="none" stroke-width="19.60811" stroke="#2BA02B" opacity="0.5"><title>Code only → cr: 7</title></path>
<path id="flow9" d="M443.07726 85.00571C652.6159 85.00571 652.6159 115.68747 862.15453 115.68747" fill="none" stroke-width="16.80695" stroke="#D52828" opacity="0.5"><title>Data only → dnr: 6</title></path>
<path id="flow6" d="M12 297.55366C221.53863 297.55366 221.53863 338.03836 431.07726 338.03836" fill="none" stroke-width="11.20464" stroke="#96c9fd" opacity="0.5"><title>Other → Data, Code, and Model: 4</title></path>
<path id="flow18" d="M443.07726 338.03836C652.6159 338.03836 652.6159 489.02312 862.15453 489.02312" fill="none" stroke-width="11.20464" stroke="#2BA02B" opacity="0.5"><title>Data, Code, and Model → dcmr: 4</title></path>
<path id="flow2" d="M12 270.94265C221.53863 270.94265 221.53863 172.02335 431.07726 172.02335" fill="none" stroke-width="8.40348" stroke="#96c9fd" opacity="0.5"><title>Other → Model only: 3</title></path>
<path id="flow3" d="M12 279.34613C221.53863 279.34613 221.53863 216.52783 431.07726 216.52783" fill="none" stroke-width="8.40348" stroke="#96c9fd" opacity="0.5"><title>Other → Data and Code only: 3</title></path>
<path id="flow14" d="M443.07726 216.52783C652.6159 216.52783 652.6159 325.41159 862.15453 325.41159" fill="none" stroke-width="8.40348" stroke="#2BA02B" opacity="0.5"><title>Data and Code only → dcr: 3</title></path>
<path id="flow4" d="M12 286.34903C221.53863 286.34903 221.53863 258.63171 431.07726 258.63171" fill="none" stroke-width="5.60232" stroke="#96c9fd" opacity="0.5"><title>Other → Code and Model only: 2</title></path>
<path id="flow11" d="M443.07726 136.91946C652.6159 136.91946 652.6159 201.70222 862.15453 201.70222" fill="none" stroke-width="5.60232" stroke="#D52828" opacity="0.5"><title>Code only → cnr: 2</title></path>
<path id="flow12" d="M443.07726 170.62277C652.6159 170.62277 652.6159 242.40553 862.15453 242.40553" fill="none" stroke-width="5.60232" stroke="#2BA02B" opacity="0.5"><title>Model only → mr: 2</title></path>
<path id="flow5" d="M12 290.55076C221.53863 290.55076 221.53863 296.93447 431.07726 296.93447" fill="none" stroke-width="2.80116" stroke="#96c9fd" opacity="0.5"><title>Other → Data and Model only: 1</title></path>
<path id="flow13" d="M443.07726 174.82451C652.6159 174.82451 652.6159 284.70827 862.15453 284.70827" fill="none" stroke-width="2.80116" stroke="#D52828" opacity="0.5"><title>Model only → mnr: 1</title></path>
<path id="flow15" d="M443.07726 257.23113C652.6159 257.23113 652.6159 367.11491 862.15453 367.11491" fill="none" stroke-width="2.80116" stroke="#2BA02B" opacity="0.5"><title>Code and Model only → cmr: 1</title></path>
<path id="flow16" d="M443.07726 260.03229C652.6159 260.03229 652.6159 405.01707 862.15453 405.01707" fill="none" stroke-width="2.80116" stroke="#D52828" opacity="0.5"><title>Code and Model only → cmnr: 1</title></path>
<path id="flow17" d="M443.07726 296.93447C652.6159 296.93447 652.6159 445.91923 862.15453 445.91923" fill="none" stroke-width="2.80116" stroke="#D52828" opacity="0.5"><title>Data and Model only → dmnr: 1</title></path>
</g>
<g id="sankey_nodes">
<g class="node">
<rect id="r0" class="for_r0" x="0" y="205.11542" height="299.724" width="12" fill="#96c9fd" fill-opacity="1"><title>Other:
107</title></rect>
</g>
<g class="node">
<rect id="r1" class="for_r1" x="431.07726" y="56.99412" height="36.41507" width="12" fill="#96c9fd" fill-opacity="1"><title>Data only:
13</title></rect>
</g>
<g class="node">
<rect id="r2" class="for_r2" x="431.07726" y="121.51019" height="25.21043" width="12" fill="#96c9fd" fill-opacity="1" transform="translate(0,-7)"><title>Code only:
9</title></rect>
</g>
<g class="node">
<rect id="r3" class="for_r3" x="431.07726" y="174.82162" height="8.40348" width="12" fill="#96c9fd" fill-opacity="1" transform="translate(0,-7)"><title>Model only:
3</title></rect>
</g>
<g class="node">
<rect id="r4" class="for_r4" x="431.07726" y="211.32609" height="8.40348" width="12" fill="#96c9fd" fill-opacity="1" transform="translate(0,1)"><title>Data and Code only:
3</title></rect>
</g>
<g class="node">
<rect id="r5" class="for_r5" x="431.07726" y="247.83057" height="5.60232" width="12" fill="#96c9fd" fill-opacity="1" transform="translate(0,7.99998)"><title>Code and Model only:
2</title></rect>
</g>
<g class="node">
<rect id="r6" class="for_r6" x="431.07726" y="281.53389" height="2.80116" width="12" fill="#96c9fd" fill-opacity="1" transform="translate(0,14)"><title>Data and Model only:
1</title></rect>
</g>
<g class="node">
<rect id="r7" class="for_r7" x="431.07726" y="312.43605" height="11.20464" width="12" fill="#96c9fd" fill-opacity="1" transform="translate(0,20)"><title>Data, Code, and Model:
4</title></rect>
</g>
<g class="node">
<rect id="r8" class="for_r8" x="431.07726" y="351.74168" height="201.68344" width="12" fill="#800080" fill-opacity="1" transform="translate(0,8.57488)"><title>n:
72</title></rect>
</g>
<g class="node">
<rect id="r9" class="for_r9" x="862.15453" y="8.57488" height="19.60811" width="12" fill="#2BA02B" fill-opacity="1" transform="translate(0,48)"><title>dr:
7</title></rect>
</g>
<g class="node">
<rect id="r10" class="for_r10" x="862.15453" y="56.28399" height="16.80695" width="12" fill="#D52828" fill-opacity="1" transform="translate(0,51)"><title>dnr:
6</title></rect>
</g>
<g class="node">
<rect id="r11" class="for_r11" x="862.15453" y="101.19195" height="19.60811" width="12" fill="#2BA02B" fill-opacity="1" transform="translate(0,45.99999)"><title>cr:
7</title></rect>
</g>
<g class="node">
<rect id="r12" class="for_r12" x="862.15453" y="148.90106" height="5.60232" width="12" fill="#D52828" fill-opacity="1" transform="translate(0,50)"><title>cnr:
2</title></rect>
</g>
<g class="node">
<rect id="r13" class="for_r13" x="862.15453" y="182.60438" height="5.60232" width="12" fill="#2BA02B" fill-opacity="1" transform="translate(0,57)"><title>mr:
2</title></rect>
</g>
<g class="node">
<rect id="r14" class="for_r14" x="862.15453" y="216.30769" height="2.80116" width="12" fill="#D52828" fill-opacity="1" transform="translate(0,67)"><title>mnr:
1</title></rect>
</g>
<g class="node">
<rect id="r15" class="for_r15" x="862.15453" y="247.20985" height="8.40348" width="12" fill="#2BA02B" fill-opacity="1" transform="translate(0,74)"><title>dcr:
3</title></rect>
</g>
<g class="node">
<rect id="r16" class="for_r16" x="862.15453" y="283.71433" height="2.80116" width="12" fill="#2BA02B" fill-opacity="1" transform="translate(0,82)"><title>cmr:
1</title></rect>
</g>
<g class="node">
<rect id="r17" class="for_r17" x="862.15453" y="314.61649" height="2.80116" width="12" fill="#D52828" fill-opacity="1" transform="translate(0,89)"><title>cmnr:
1</title></rect>
</g>
<g class="node">
<rect id="r18" class="for_r18" x="862.15453" y="345.51865" height="2.80116" width="12" fill="#D52828" fill-opacity="1" transform="translate(0,99)"><title>dmnr:
1</title></rect>
</g>
<g class="node">
<rect id="r19" class="for_r19" x="862.15453" y="376.42081" height="11.20464" width="12" fill="#2BA02B" fill-opacity="1" transform="translate(0,107)"><title>dcmr:
4</title></rect>
</g>
</g>
<g id="sankey_labels" font-family="sans-serif" font-size="28px" fill="#000000">
<text id="label" class="for_r1" text-anchor="middle" x="462.51335" y="30" font-weight="400" font-size="30px" dy="-5.42">Promised to release</text>
<rect id="label0_bg" class="for_r0" x="14.85731" y="332.0574" width="140.09991" height="45.12" rx="7" fill="#fff" fill-opacity="0.50" stroke="none" stroke-width="0" stroke-opacity="0"></rect>
<text id="label0" class="for_r0" text-anchor="start" x="23.02106" y="354.97742" font-weight="400" font-size="32.2px" dy="10.44">107 <tspan font-weight="400" font-size="23.8px">Other</tspan></text>
<rect id="label1_bg" class="for_r1" x="445.93461" y="52.28165" width="162.43542" height="45.12" rx="7" fill="#fff" fill-opacity="0.50" stroke="none" stroke-width="0" stroke-opacity="0"></rect>
<text id="label1" class="for_r1" text-anchor="start" x="454.09833" y="75.20165" font-weight="400" font-size="32.2px" dy="10.44">13 <tspan font-weight="400" font-size="23.8px">Data only</tspan></text>
<rect id="label2_bg" class="for_r2" x="445.93461" y="111.19541" width="151.15948" height="45.11999" rx="7" fill="#fff" fill-opacity="0.50" stroke="none" stroke-width="0" stroke-opacity="0" transform="translate(0,-7)"></rect>
<text id="label2" class="for_r2" text-anchor="start" x="454.09833" y="134.1154" font-weight="400" font-size="32.2px" dy="10.44" transform="translate(0,-7)">9 <tspan font-weight="400" font-size="23.8px">Code only</tspan></text>
<rect id="label3_bg" class="for_r3" x="445.93461" y="156.10335" width="159.08502" height="45.12" rx="7" fill="#fff" fill-opacity="0.50" stroke="none" stroke-width="0" stroke-opacity="0" transform="translate(0,-7)"></rect>
<text id="label3" class="for_r3" text-anchor="start" x="454.09833" y="179.02335" font-weight="400" font-size="32.2px" dy="10.44" transform="translate(0,-7)">3 <tspan font-weight="400" font-size="23.8px">Model only</tspan></text>
<rect id="label4_bg" class="for_r4" x="445.93461" y="192.60783" width="254.36639" height="45.12" rx="7" fill="#fff" fill-opacity="0.50" stroke="none" stroke-width="0" stroke-opacity="0" transform="translate(0,1)"></rect>
<text id="label4" class="for_r4" text-anchor="start" x="454.09833" y="215.52783" font-weight="400" font-size="32.2px" dy="10.44" transform="translate(0,1)">3 <tspan font-weight="400" font-size="23.8px">Data and Code only</tspan></text>
<rect id="label5_bg" class="for_r5" x="445.93461" y="227.71173" width="268.91601" height="45.12" rx="7" fill="#fff" fill-opacity="0.50" stroke="none" stroke-width="0" stroke-opacity="0" transform="translate(0,7.99998)"></rect>
<text id="label5" class="for_r5" text-anchor="start" x="454.09833" y="250.63173" font-weight="400" font-size="32.2px" dy="10.44" transform="translate(0,7.99998)">2 <tspan font-weight="400" font-size="23.8px">Code and Model only</tspan></text>
<rect id="label6_bg" class="for_r6" x="445.93461" y="260.01446" width="262.29199" height="45.12" rx="7" fill="#fff" fill-opacity="0.50" stroke="none" stroke-width="0" stroke-opacity="0" transform="translate(0,14)"></rect>
<text id="label6" class="for_r6" text-anchor="start" x="454.09833" y="282.93447" font-weight="400" font-size="32.2px" dy="10.44" transform="translate(0,14)">1 <tspan font-weight="400" font-size="23.8px">Data and Model only</tspan></text>
<rect id="label7_bg" class="for_r7" x="445.93461" y="295.11834" width="288.66473" height="45.12" rx="7" fill="#fff" fill-opacity="0.50" stroke="none" stroke-width="0" stroke-opacity="0" transform="translate(0,20)"></rect>
<text id="label7" class="for_r7" text-anchor="start" x="454.09833" y="318.03836" font-weight="400" font-size="32.2px" dy="10.44" transform="translate(0,20)">4 <tspan font-weight="400" font-size="23.8px">Data, Code, and Model</tspan></text>
<rect id="label8_bg" class="for_r8" x="445.93461" y="429.66339" width="75.02722" height="45.12" rx="7" fill="#fff" fill-opacity="0.50" stroke="none" stroke-width="0" stroke-opacity="0" transform="translate(0,8.57488)"></rect>
<text id="label8" class="for_r8" text-anchor="start" x="454.09833" y="452.5834" font-weight="400" font-size="32.2px" dy="10.44" transform="translate(0,8.57488)">72</text>
<rect id="label9_bg" class="for_r9" x="877.01185" y="-4.54106" width="65.92618" height="45.12" rx="7" fill="#fff" fill-opacity="0.50" stroke="none" stroke-width="0" stroke-opacity="0" transform="translate(0,48)"></rect>
<text id="label9" class="for_r9" text-anchor="start" x="885.17559" y="18.37894" font-weight="400" font-size="32.2px" dy="10.44" transform="translate(0,48)">7</text>
<rect id="label10_bg" class="for_r10" x="877.01185" y="41.76747" width="79.16257" height="45.12" rx="7" fill="#fff" fill-opacity="0.50" stroke="none" stroke-width="0" stroke-opacity="0" transform="translate(0,51)"></rect>
<text id="label10" class="for_r10" text-anchor="start" x="885.17559" y="64.68747" font-weight="400" font-size="32.2px" dy="10.44" transform="translate(0,51)">6</text>
<rect id="label11_bg" class="for_r11" x="877.01185" y="88.076" width="64.58975" height="45.12" rx="7" fill="#fff" fill-opacity="0.50" stroke="none" stroke-width="0" stroke-opacity="0" transform="translate(0,45.99999)"></rect>
<text id="label11" class="for_r11" text-anchor="start" x="885.17559" y="110.996" font-weight="400" font-size="32.2px" dy="10.44" transform="translate(0,45.99999)">7</text>
<rect id="label12_bg" class="for_r12" x="877.01185" y="128.78222" width="77.82614" height="45.12" rx="7" fill="#fff" fill-opacity="0.50" stroke="none" stroke-width="0" stroke-opacity="0" transform="translate(0,50)"></rect>
<text id="label12" class="for_r12" text-anchor="start" x="885.17559" y="151.70222" font-weight="400" font-size="32.2px" dy="10.44" transform="translate(0,50)">2</text>
<rect id="label13_bg" class="for_r13" x="877.01185" y="162.48553" width="72.51535" height="45.12" rx="7" fill="#fff" fill-opacity="0.50" stroke="none" stroke-width="0" stroke-opacity="0" transform="translate(0,57)"></rect>
<text id="label13" class="for_r13" text-anchor="start" x="885.17559" y="185.40553" font-weight="400" font-size="32.2px" dy="10.44" transform="translate(0,57)">2</text>
<rect id="label14_bg" class="for_r14" x="877.01185" y="194.78827" width="85.75174" height="45.12" rx="7" fill="#fff" fill-opacity="0.50" stroke="none" stroke-width="0" stroke-opacity="0" transform="translate(0,67)"></rect>
<text id="label14" class="for_r14" text-anchor="start" x="885.17559" y="217.70827" font-weight="400" font-size="32.2px" dy="10.44" transform="translate(0,67)">1</text>
<rect id="label15_bg" class="for_r15" x="877.01185" y="228.49159" width="77.82614" height="45.11998" rx="7" fill="#fff" fill-opacity="0.50" stroke="none" stroke-width="0" stroke-opacity="0" transform="translate(0,74)"></rect>
<text id="label15" class="for_r15" text-anchor="start" x="885.17559" y="251.41159" font-weight="400" font-size="32.2px" dy="10.44" transform="translate(0,74)">3</text>
<rect id="label16_bg" class="for_r16" x="877.01185" y="262.19488" width="84.41531" height="45.12" rx="7" fill="#fff" fill-opacity="0.50" stroke="none" stroke-width="0" stroke-opacity="0" transform="translate(0,82)"></rect>
<text id="label16" class="for_r16" text-anchor="start" x="885.17559" y="285.11491" font-weight="400" font-size="32.2px" dy="10.44" transform="translate(0,82)">1</text>
<rect id="label17_bg" class="for_r17" x="877.01185" y="293.09707" width="97.65176" height="45.12" rx="7" fill="#fff" fill-opacity="0.50" stroke="none" stroke-width="0" stroke-opacity="0" transform="translate(0,89)"></rect>
<text id="label17" class="for_r17" text-anchor="start" x="885.17559" y="316.01707" font-weight="400" font-size="32.2px" dy="10.44" transform="translate(0,89)">1</text>
<rect id="label18_bg" class="for_r18" x="877.01185" y="323.9992" width="98.98819" height="45.12" rx="7" fill="#fff" fill-opacity="0.50" stroke="none" stroke-width="0" stroke-opacity="0" transform="translate(0,99)"></rect>
<text id="label18" class="for_r18" text-anchor="start" x="885.17559" y="346.91923" font-weight="400" font-size="32.2px" dy="10.44" transform="translate(0,99)">1</text>
<rect id="label19_bg" class="for_r19" x="877.01185" y="359.10315" width="97.65176" height="45.12" rx="7" fill="#fff" fill-opacity="0.50" stroke="none" stroke-width="0" stroke-opacity="0" transform="translate(0,107)"></rect>
<text id="label19" class="for_r19" text-anchor="start" x="885.17559" y="382.02312" font-weight="400" font-size="32.2px" dy="10.44" transform="translate(0,107)">4</text>
</g>
</g></svg>